# xmcd
#
# Track frame offsets: 
#        182
#        12680
#        26357
#        39455
#        49615
#        60647
#        72857
#        86507
#        98820
#        111092
#        121415
#        134507
#        147455
#        157072
#        169037
#        177225
#        188117
#        199372
#        212582
#        223160
#
# Disc length: 3110 seconds
#
# Revision: 7
# Processed by: cddbd v1.5.2PL0 Copyright (c) Steve Scherf et al.
# Submitted via: ExactAudioCopyFreeDBPlugin 1.0
#
DISCID=2a0c2414
DTITLE=Ruth Brown - Miss Rhythm:  Greatest Hits and More
DYEAR=1989
DGENRE=Rhythm and Blues
TTITLE0=Ever Since My Baby's Been Gone
TTITLE1=Love Contest
TTITLE2=Oh What a Dream
TTITLE3=Old Man River
TTITLE4=Somebody Touched Me
TTITLE5=Mambo Baby
TTITLE6=I Can See Everybody's Baby
TTITLE7=As Long as I'm Moving
TTITLE8=It's Love Baby
TTITLE9=I Gotta Have You
TTITLE10=Love Has Joined Us Together
TTITLE11=I Wanna Do More
TTITLE12=Lucky Lips
TTITLE13=One More Time
TTITLE14=This Little Girl's Gone Rockin'
TTITLE15=Why Me
TTITLE16=I Can't Hear a Word You Say
TTITLE17=I Don't Know
TTITLE18=Takin' Care of Business
TTITLE19=Don't Deceive Me
EXTD=1989 Atlantic Recording Corporation
EXTT0=
EXTT1=
EXTT2=
EXTT3=
EXTT4=
EXTT5=
EXTT6=
EXTT7=
EXTT8=
EXTT9=
EXTT10=
EXTT11=
EXTT12=
EXTT13=
EXTT14=
EXTT15=
EXTT16=
EXTT17=
EXTT18=
EXTT19=
PLAYORDER=
